inDegrees=yes
name=ik_s24_walk_orientation
DataType=double
version=3
OpenSimVersion=4.5
endheader
time	pelvis_tilt	pelvis_list	pelvis_rotation	pelvis_tx	pelvis_ty	pelvis_tz	hip_flexion_r	hip_adduction_r	hip_rotation_r	knee_angle_r	knee_angle_r_beta	ankle_angle_r	subtalar_angle_r	mtp_angle_r	hip_flexion_l	hip_adduction_l	hip_rotation_l	knee_angle_l	knee_angle_l_beta	ankle_angle_l	subtalar_angle_l	mtp_angle_l	lumbar_extension	lumbar_bending	lumbar_rotation	arm_flex_r	arm_add_r	arm_rot_r	elbow_flex_r	pro_sup_r	wrist_flex_r	wrist_dev_r	arm_flex_l	arm_add_l	arm_rot_l	elbow_flex_l	pro_sup_l	wrist_flex_l	wrist_dev_l
7.576923076923054	9.60167979019668	-11.69459404687981	27.7488539127714	0	0.93	0	33.1705141042402	5.082181161279243	-25.26107653625614	73.53299424613503	1.283392858445102	-4.999999851051517	0	0	-29.88214402928857	29.99291186834411	-1.699043197492629	0.01843166273218079	0.0003216932012936885	-4.999999851046205	0	0	0	0	-8.87534903033212e-12	0	0	72.06724514885322	7.595651620981576e-46	9.408807169215888e-46	0	0	0	0	75.80607959268811	1.411321075382383e-45	0	0	0
7.596153846153824	8.145130863497254	-10.73751910970906	21.97214989952508	0	0.93	0	15.28287893043433	26.68946477909706	-13.40639438333624	45.5627153260111	0.7952193985877752	-4.999999851050993	0	0	-13.83120031994914	29.99170491365996	-12.73983977490755	0.05125754855899926	0.000894612988855412	-4.999999851046322	0	0	0	0	-8.87534903033212e-12	0	0	80.28799741045812	0	2.304883802260617e-39	0	0	0	0	67.93937769581267	1.591863790894455e-38	7.129506426801467e-40	0	0
7.615384615384593	8.01888180350238	-10.97774276750474	17.33913884072604	0	0.93	0	11.72815529407753	29.33137330415567	-6.473476468922887	43.18265796926326	0.7536795613262122	-4.999999851050809	0	0	8.510963731653344	29.99205946229706	-39.93763866719116	6.622667263905444	0.1155873490191942	-4.99999985104693	0	0	0	0	-8.87534903033212e-12	0	0	88.70032042082018	0	6.272538112810592e-46	0	0	0	0	62.47571590304423	0	0	0	0
7.634615384615362	8.285328488752066	-9.413171429848962	18.84251044379761	0	0.93	0	10.17427652830609	29.76692780986784	-9.881504503805408	35.87680923604052	0.6261684462788186	-4.999999851050604	0	0	17.17838098534601	29.98864580793144	-39.97131583766597	13.01799863910342	0.2272069382724957	-4.99999985104698	0	0	0	0	-8.87534903033212e-12	0	0	89.71494407697372	0	0	0	0	0	0	65.41405381939894	3.934735825581258e-38	0	0	0
7.653846153846131	8.538540606340129	-8.633411081793202	19.98744879833872	0	0.93	0	10.48582854499878	24.36468200491493	-23.47124195915247	47.57449656236397	0.8303316049919751	-4.999999851050423	0	0	22.86624684216813	29.98180913779846	-39.97784031911651	18.05489408101102	0.3151173478124781	-4.999999851046998	0	0	0	0	-8.87534903033212e-12	0	0	89.7536628500883	0	0	0	0	0	0	69.14995844677107	4.300325660093242e-39	0	0	0
7.6730769230769	9.319430144889784	-9.546268517558044	21.04898313625454	0	0.93	0	9.080553652755446	27.50854444796387	-24.92022178330345	58.67363505302453	1.024048115788836	-4.999999851048789	0	0	22.56342287890861	29.98304350928592	-39.97889166467476	18.05646761211516	0.315144811111128	-4.999999850998953	0	0	0	0	-8.87534903033212e-12	0	0	89.50538464983295	6.376200586678145e-39	0	0	0	0	0	71.82992853698622	2.023384304763362e-38	3.505583555411358e-40	0	0
7.692307692307669	9.876788337903092	-9.78008510067486	21.6720790280626	0	0.93	0	7.967606359724705	29.00382553868436	-24.29425868124218	68.83563136213616	1.201408409958345	-4.99999985104838	0	0	28.61845599731739	29.9854418473641	-39.98100740330472	20.70069180485226	0.3612952294352795	-4.999999850999274	0	0	0	0	-8.87534903033212e-12	0	0	88.64273539640118	0	1.442683765946436e-44	0	0	0	0	72.16808715022243	1.548532846600115e-45	0	0	0
7.711538461538439	10.09340321443303	-9.066195427302754	18.89138154999749	0	0.93	0	-13.47646901298323	18.13191765800516	10.13793899979373	29.81806592132414	0.5204234269038227	-4.999999851048265	0	0	41.36604022907022	29.98730095633133	-39.98411441279403	35.05881938160852	0.6118918300710711	-4.999999851009921	0	0	0	0	-8.87534903033212e-12	0	0	89.83318364356091	4.476602053813658e-40	0	0	0	0	0	66.82495692039852	1.198729547834309e-39	0	0	0
7.730769230769208	7.582765826944074	-8.00397000091327	16.14311850546514	0	0.93	0	-29.96039473220213	24.89745760019014	-14.12887644692657	7.653867923262535	0.1335851957737119	-4.999999851048831	0	0	58.10096510471271	29.98752727425386	-39.98417714804226	51.14834787506511	0.8927070773753315	-4.999999851012825	0	0	0	0	-8.87534903033212e-12	0	0	89.94698705385998	0	0	0	0	0	0	61.96618836779433	0	0	0	0
7.749999999999977	7.386788505119387	-6.705126896205122	16.39338514641775	0	0.93	0	12.19674769330419	29.96104313266045	-12.57337163482877	58.92995198213999	1.028521690130501	-4.999999851047617	0	0	79.40041007853368	29.97466227405023	-39.98943272290714	75.01213104280588	1.30920866563441	-4.99999985103867	0	0	0	0	-8.87534903033212e-12	0	0	89.94485510952475	9.049362430523607e-39	1.84662142082759e-39	0	0	0	0	60.03850029763979	0	0	0	0
7.769230769230746	6.654397188075496	-5.368496236913225	17.54673631314568	0	0.93	0	3.761619829891262	20.78226847424356	-9.642769396703413	60.33425960934787	1.053031481936148	-4.999999851047716	0	0	96.07237283070918	29.47926142960023	-39.98497097017222	88.17277314146519	1.538905201932591	-4.999999851032792	0	0	0	0	-8.87534903033212e-12	0	0	89.93180719249669	3.530483414737603e-39	0	0	0	0	0	60.52733304334301	2.249195927726068e-38	9.141177099183503e-39	0	0
7.788461538461515	5.445471002659544	-2.758235892071661	15.09487433177899	0	0.93	0	-14.81925504815749	24.69214314316225	-16.89093163671935	35.06569049883035	0.6120117536898824	-4.999999851037118	0	0	109.9913228156502	29.97209186778782	-39.96358058983554	108.193365821307	1.888330462396506	-4.999999851033879	0	0	0	0	-8.87534903033212e-12	0	0	89.96868102817315	0	0	0	0	0	0	58.04544995360802	6.738770539078406e-39	0	0	0
7.807692307692284	3.700904747493667	-0.05599094347720396	12.60573939925578	0	0.93	0	-17.50322112086134	29.89166035771062	-27.77325901862374	20.31347585221044	0.3545370361454332	-4.999999851037543	0	0	109.8752593018941	29.98664916523777	-38.86879929320161	118.7949382115315	2.073362806494448	-4.999999851034466	0	0	0	0	-8.87534903033212e-12	0	0	89.97845240264246	8.704169571298139e-39	0	0	0	0	0	56.5280931855967	0	1.68506814873025e-38	0	0
7.826923076923054	4.399388479097017	-1.82530033172094	16.15575720972192	0	0.93	0	-11.85624196926924	24.99308020781582	-29.41102073218336	23.89878210179362	0.4171124348929893	-4.999999851042495	0	0	70.18613510219457	29.95965718500914	-39.35263600323794	73.6671609551741	1.285734509264399	-4.999999851044637	0	0	0	0	-8.87534903033212e-12	0	0	89.95696190221472	1.052357267868557e-38	0	0	0	0	0	61.05225984711071	0	0	0	0
7.846153846153823	4.331409697128153	-2.04601990109808	18.85015417941248	0	0.93	0	6.559832875389816	12.04594486744083	-36.72677219050389	46.42493807889902	0.8102680245112789	-4.999999851040299	0	0	30.05029830627239	29.96893802214995	-39.96399926460494	33.13529669495059	0.5783200259520829	-4.999999851037727	0	0	0	0	-8.87534903033212e-12	0	0	89.84589566397771	0	0	0	0	0	0	65.85525930438619	0	0	0	0
7.865384615384592	4.233961791765881	-0.5907956263338648	20.65347718556513	0	0.93	0	2.442279159592009	13.34693996321066	-35.84161560604047	37.45109944908454	0.6536449938783597	-4.999999851040733	0	0	7.718945400537131	29.97601774835872	-39.96969288510591	18.00310644466632	0.3142134830464376	-4.999999851037927	0	0	0	0	-8.87534903033212e-12	0	0	88.57090333561034	0	0	0	0	0	0	70.73874827342651	0	0	0	0
7.884615384615361	4.721541209778464	-0.9789441691842312	20.61551750998294	0	0.93	0	-7.290886913494768	19.35651618386937	-25.88474195496782	27.4977576168242	0.4799264073289315	-4.999999851041165	0	0	17.60537917371171	29.97866338221367	-39.97645057145693	21.51015304196792	0.3754229931902143	-4.9999998510385	0	0	0	0	-8.87534903033212e-12	0	0	87.31804425349023	4.385076823584303e-39	5.983219566152269e-39	0	0	0	0	75.72406344725263	0	2.663319682699377e-40	0	0
7.90384615384613	5.395488376433737	-2.046411090966533	21.45405115228237	0	0.93	0	-7.698158338365853	20.28389719881978	-21.02077134369713	28.90294041658112	0.504451473777082	-4.999999851041303	0	0	25.06058770382495	29.97876126033975	-39.98242056944238	20.52314414232633	0.3581964381449822	-4.999999851038687	0	0	0	0	-8.87534903033212e-12	0	0	87.02452095416724	0	4.084255422111166e-39	0	0	0	0	78.64297650327767	4.726921996432934e-41	9.801925950360065e-39	0	0
7.923076923076899	5.726928214405999	-1.663007929440866	22.17089196168966	0	0.93	0	-4.013924725703838	19.31545292907582	-21.75005448452147	32.93118273193534	0.5747575652481728	-4.999999851043384	0	0	32.49218511111852	29.98190839587145	-39.98617787023595	22.38347739437889	0.390665378577633	-4.999999851030545	0	0	0	0	-8.87534903033212e-12	0	0	86.89242658398548	0	0	0	0	0	0	77.50088474053115	0	0	0	0
7.942307692307669	5.306838708684539	-1.324935675307992	20.41500889479114	0	0.93	0	-8.881400706826218	21.27358384758501	-21.07126098634421	29.12464674778248	0.5083209792290628	-4.99999985104353	1.174487473515469e-15	-2.329432370357152e-16	48.3659392415812	29.9791695411361	-39.98772903941283	30.90580871664201	0.5394081200969664	-4.999999851031365	-4.397352896687388e-16	-2.524706683213921e-16	7.452094712374746e-26	3.821324442290463e-21	-8.87534903033212e-12	9.399305127685602e-18	2.554635348895929e-18	88.72982712403666	2.418291794953111e-15	0	5.036982068273014e-23	-6.716179675474118e-19	-3.657598018107171e-14	-1.698593714738376e-14	73.75794394685555	1.080531385651417e-14	2.829458663792412e-14	-1.030256336354018e-20	9.868753295565719e-19
7.961538461538438	4.422058442854923	0.9860127051546901	17.06403406353441	0	0.93	0	-11.13134332859412	20.53770624911229	-19.23113010463761	28.06908942773371	0.4898980285506842	-4.99999985104365	0	0	70.69508168906692	29.97356539194161	-39.98422360925768	51.97214253935389	0.907085006627532	-4.999999851031868	0	0	0	0	-8.87534903033212e-12	0	0	89.94357841390719	1.767160927616187e-38	1.03794649966767e-39	0	0	0	0	69.25014830880302	2.057198836387641e-40	2.145056239158892e-39	0	0
7.980769230769207	3.57305327753232	2.956755488510098	14.41928310549487	0	0.93	0	-14.25888030229919	18.09184808633609	-15.64203920110189	26.59445174220149	0.4641607456641581	-4.999999851043751	0	0	88.03675326250855	29.97935604960613	-39.97888524843896	68.8807511704604	1.202195899171472	-4.999999851032277	0	0	0	0	-8.87534903033212e-12	0	0	89.97395015285572	6.809749639482255e-39	0	0	0	0	0	66.67256041072218	1.148468076288644e-38	1.219729785897165e-38	0	0
7.999999999999976	3.173784271191376	2.936713152729326	12.92308144905678	0	0.93	0	-16.16347465555777	19.19268459515153	-12.00305483967572	23.42333364994603	0.4088142939847392	-4.999999851043974	0	0	78.84474409098435	29.98666160379181	-39.97229153715888	54.32591808428693	0.9481661397395373	-4.999999851033242	0	0	0	0	-8.87534903033212e-12	0	0	89.98006429795974	3.508288320467916e-39	5.119143400390994e-42	0	0	0	0	65.67591674384634	0	2.437528163221323e-38	0	0
8.019230769230745	3.070183787415413	3.599757944771519	12.08767391049314	0	0.93	0	-16.1416679367007	18.74730112635033	-12.20824508205855	24.45340335210113	0.426792401812383	-4.999999851042046	0	0	72.33866021431443	29.98836328432218	-39.93273338811124	45.66758193336238	0.7970496661614511	-4.999999851028985	0	0	0	0	-8.87534903033212e-12	0	0	89.98180292600843	0	0	0	0	0	0	64.67763328719289	4.592671255238081e-40	0	0	0
